<svg width="189" height="189" viewBox="0 0 189 189" fill="none" xmlns="http://www.w3.org/2000/svg">
<path d="M127.448 88.9246V88.88L125.191 82.1537C122.374 75.2834 114.096 61.6151 94.2071 61.6151C87.1292 61.6151 80.3853 63.827 74.7067 68.0159L70.4185 62.2019C77.3429 57.0921 85.5673 54.3928 94.1981 54.3928C126.121 54.3928 133.244 84.0044 133.307 84.3023L134.201 88.2114L127.448 88.9246Z" fill="white"/>
<path d="M75.1251 65.9283L75.1571 65.8971L81.5531 62.8265C88.4424 60.0569 103.048 53.4497 116.912 67.7095C121.846 72.7842 125.489 82.1542 127.295 88.9251L134.039 88.1895C132.876 79.6628 128.346 72.5438 122.329 66.3557C96.7688 48.0562 76.6048 62.12 75.1251 60.0358L72.6747 62.8265L75.1251 65.9283Z" fill="white"/>
<path d="M62.1935 137.152L59.5574 134.868C53.6712 129.777 48.8954 123.34 45.7266 116.262L52.317 113.319C54.583 118.383 57.8059 123.069 61.7331 127.032L65.8679 122.581C58.5372 115.106 54.3934 105.067 54.3934 94.4954C54.3934 83.2105 59.1872 72.386 67.5561 64.7935L72.4132 70.138C65.5519 76.3583 61.6248 85.2418 61.6248 94.4954C61.6248 104.2 65.886 113.364 73.3069 119.629L76.1959 122.076L62.1935 137.152Z" fill="white"/>
<path d="M43.7497 111.143C41.9892 105.78 41.1045 100.183 41.1045 94.4954C41.1045 90.8752 41.4656 87.255 42.1878 83.7341L49.2658 85.1786C48.6428 88.221 48.3268 91.3537 48.3268 94.4864C48.3268 99.4066 49.0942 104.255 50.6109 108.886L43.7497 111.143Z" fill="white"/>
<path d="M50.4479 80.6015L43.5596 78.4258C50.5923 56.0997 71.0677 41.0952 94.4952 41.0952C102.991 41.0952 111.45 43.1446 118.952 47.0175L115.639 53.4364C109.066 50.0419 101.952 48.3176 94.4952 48.3176C74.2365 48.3266 56.5327 61.2998 50.4479 80.6015Z" fill="white"/>
<path d="M137.595 146.469L123.232 130.815L125.868 128.368C135.275 119.656 140.665 107.306 140.665 94.4954C140.665 79.4549 133.307 65.3171 120.975 56.6684L125.127 50.7551C139.383 60.758 147.887 77.1076 147.887 94.4954C147.887 108.11 142.624 121.272 133.325 131.14L137.938 136.168C141.739 132.214 144.962 127.772 147.562 122.933L153.927 126.355C150.379 132.964 145.774 138.904 140.249 144.014L137.595 146.469Z" fill="white"/>
<path d="M156.382 121.281L149.755 118.41C152.355 112.407 153.944 106.051 154.486 99.515L161.681 100.111C161.085 107.432 159.298 114.556 156.382 121.281Z" fill="white"/>
<path d="M94.4956 175.458V168.236C135.157 168.236 168.227 135.157 168.227 94.5045C168.227 87.5259 167.27 82.6237 165.609 76.5118L164.67 73.0541L184.856 67.4297L185.795 70.9596C188.007 79.2382 188.991 86.4967 188.991 94.5135C188.991 104.21 187.529 113.761 184.649 122.915L177.76 120.749C180.424 112.29 181.769 103.469 181.769 94.5135C181.769 88.3113 181.119 82.5876 179.701 76.3673L173.472 78.1007C174.718 83.2647 175.449 88.1669 175.449 94.5135C175.458 139.139 139.139 175.458 94.4956 175.458Z" fill="white"/>
<path d="M132.007 181.263L129.136 174.637C149.63 165.762 165.799 149.593 174.655 129.091L181.282 131.952C171.694 154.143 154.189 171.657 132.007 181.263Z" fill="white"/>
<path d="M94.4956 189C59.8644 189 28.0409 170.086 11.4565 139.644L17.8032 136.187C33.1236 164.309 62.5096 181.769 94.4956 181.769C104.201 181.769 113.725 180.189 122.825 177.074L125.163 183.908C115.314 187.285 105.004 189 94.4956 189Z" fill="white"/>
<path d="M8.45918 133.641C2.8438 121.318 0 108.146 0 94.4955C0 67.0144 11.944 40.9327 32.7624 22.949L37.484 28.4109C18.2545 45.0314 7.22235 69.1089 7.22235 94.4955C7.22235 107.098 9.84949 119.268 15.0315 130.643L8.45918 133.641Z" fill="white"/>
<path d="M42.9914 24.0323L38.7212 18.2003C42.4407 15.4829 46.3769 13.0092 50.4485 10.8696L53.8159 17.2614C50.0693 19.2385 46.4311 21.5226 42.9914 24.0323Z" fill="white"/>
<path d="M166.746 45.5189C150.46 21.5407 123.448 7.22235 94.4957 7.22235C83.0302 7.22235 71.8807 9.41614 61.3631 13.7315L58.6187 7.05082C70.0119 2.37435 82.0823 0 94.4957 0C125.841 0 155.082 15.501 172.714 41.4563L166.746 45.5189Z" fill="white"/>
<path d="M164.489 70.6978L163.261 67.511C158.115 54.1225 149.286 42.648 137.721 34.3242L141.937 28.4651C153.719 36.9514 162.918 48.4078 168.705 61.7602L174.618 59.8643C173.174 56.5239 171.513 53.2649 169.662 50.1412L175.873 46.4668C178.582 51.035 180.911 55.8739 182.798 60.8303L184.161 64.3963L164.489 70.6978Z" fill="white"/>
<path d="M132.675 31.002C126.427 27.2554 119.675 24.4928 112.597 22.7866L114.294 15.7628C122.085 17.6406 129.515 20.683 136.385 24.7998L132.675 31.002Z" fill="white"/>
<path d="M86.5779 175.07C67.6463 173.228 49.8793 164.688 36.5451 151.019C23.1837 137.324 15.0947 119.304 13.7495 100.273L20.9538 99.7678C23.4997 135.744 51.387 164.39 87.2821 167.875L86.5779 175.07Z" fill="white"/>
<path d="M20.7643 94.4956H13.542C13.542 87.1288 14.5351 79.8252 16.4851 72.7834L23.4456 74.7154C21.6671 81.1252 20.7643 87.7788 20.7643 94.4956Z" fill="white"/>
<path d="M25.8469 67.5381L19.1211 64.8929C30.0088 37.1952 55.0884 17.749 84.5737 14.1468L88.4015 13.6774L89.5661 34.3423L86.2077 34.7486C75.5277 36.0576 65.4525 40.2466 57.0565 46.8731L52.5787 41.2036C61.1281 34.4597 71.2304 29.9548 81.9736 28.0769L81.6215 21.8747C56.4426 26.3075 35.2901 43.5147 25.8469 67.5381Z" fill="white"/>
<path d="M44.3178 139.527C33.2044 127.141 27.0835 111.152 27.0835 94.4955C27.0835 75.8077 34.3149 58.483 47.4415 45.7085L52.4791 50.8815C40.7518 62.2928 34.3059 77.7757 34.3059 94.4955C34.3059 109.365 39.7768 123.647 49.6985 134.697L44.3178 139.527Z" fill="white"/>
<path d="M94.4958 161.916C76.81 161.916 60.0993 155.118 47.4331 142.768L52.4707 137.595C63.7737 148.618 78.6969 154.685 94.4868 154.685C104.742 154.685 114.736 152.094 123.629 147.174L119.855 141.874C113.337 145.512 106.25 147.408 97.8542 147.806L97.5111 140.592C105.862 140.195 112.651 138.119 118.871 134.038L121.778 132.133L133.984 149.268L130.788 151.317C119.964 158.251 107.415 161.916 94.4958 161.916Z" fill="white"/>
<path d="M122.869 111.002C126.472 104.91 128.002 97.9796 127.288 90.9594L134.476 90.2288C135.348 98.7902 133.484 107.243 129.089 114.671L122.869 111.002Z" fill="white"/>
<path d="M94.319 147.896C85.5167 147.896 76.7867 145.711 69.0768 141.567L65.2129 139.491L78.0506 123.827L80.4972 124.784C80.5604 124.811 87.2501 127.384 94.319 127.384C111.495 126.843 123.232 115.106 127.294 101.113C127.922 92.9878 128.033 91.5251 128.033 91.5251L134.421 91.5253V95.3983C134.421 117.381 116.808 134.598 94.319 134.598C88.6765 134.598 83.3861 133.28 80.3889 132.359L76.4978 137.098C82.1042 139.437 88.189 140.664 94.31 140.664V147.896H94.319Z" fill="white"/>
<path d="M142.641 46.8551C133.378 37.4118 121.768 31.1193 109.075 28.4922L107.667 35.5521C134.841 41.1404 154.693 65.0373 154.693 94.5045H161.915C161.915 76.4487 155.072 59.5303 142.641 46.8551Z" fill="white"/>
<path d="M105.852 27.8963C103.595 27.5442 101.32 27.2914 99.009 27.1741V20.8545C101.627 20.9809 104.236 21.2427 106.8 21.649L107.911 14.5169C103.803 13.8759 99.5958 13.5509 95.3978 13.5509H91.7866V34.3152H95.3978C98.6388 34.3152 101.808 34.577 104.895 35.0555L105.852 27.8963Z" fill="white"/>
<path d="M93.3571 107.505H78.1564V87.1478C78.1564 85.2636 78.7547 83.7486 79.9514 82.6029C80.7662 81.839 81.6828 81.3425 82.7013 81.1133C83.7198 80.8842 84.9674 80.7696 86.4442 80.7696H93.3571V84.1306H85.9477C83.1469 84.1306 81.7465 85.3018 81.7465 87.6443V91.9983H90.569V95.3592H81.7465V104.144H93.3571V107.505ZM111.224 80.7696V84.1306H104.464C101.892 84.1306 100.607 85.1745 100.607 87.2624C100.607 88.3827 101.167 89.3375 102.287 90.1268C103.433 90.8907 104.973 91.6291 106.908 92.342C107.774 92.673 108.512 93.0167 109.123 93.3732C109.735 93.7042 110.346 94.1498 110.957 94.71C111.568 95.2701 112.026 95.9958 112.332 96.8869C112.637 97.7526 112.79 98.7584 112.79 99.9042C112.79 101.177 112.523 102.323 111.988 103.342C111.453 104.335 110.766 105.124 109.926 105.709C109.085 106.27 108.22 106.702 107.328 107.008C106.463 107.288 105.61 107.441 104.77 107.466C104.413 107.492 103.904 107.505 103.242 107.505H97.2837V104.144H103.127C104.859 104.144 106.272 103.787 107.367 103.074C108.461 102.336 109.009 101.266 109.009 99.866C109.009 99.1785 108.856 98.5802 108.551 98.0709C108.245 97.5362 107.799 97.0779 107.214 96.696C106.654 96.314 106.068 95.983 105.457 95.703C104.871 95.4229 104.158 95.1301 103.318 94.8245C103.089 94.7481 102.911 94.6845 102.783 94.6336C98.786 93.1059 96.7872 90.6106 96.7872 87.1478C96.7872 85.009 97.4747 83.4176 98.8496 82.3737C100.225 81.3043 102.02 80.7696 104.235 80.7696H111.224Z" fill="white"/>
</svg>
